<svg width="1100" height="520" viewBox="0 0 1100 520" fill="none" xmlns="http://www.w3.org/2000/svg" role="img" aria-labelledby="title desc">
  <title id="title">SAB article review dashboard preview</title>
  <desc id="desc">An illustrative preview of the SAB dashboard with filters, article cards, company sentiment bubbles, source badges, and pagination.</desc>
  <rect width="1100" height="520" rx="18" fill="#1e1e1e"/>
  <rect x="1" y="1" width="1098" height="518" rx="17" stroke="#333333"/>

  <rect x="24" y="24" width="218" height="472" rx="10" fill="#252526" stroke="#333333"/>
  <text x="48" y="66" fill="#4fc3f7" font-family="Cascadia Mono, Consolas, monospace" font-size="26" font-weight="700">SAB</text>
  <text x="48" y="92" fill="#858585" font-family="Segoe UI, Arial, sans-serif" font-size="14">Sentiment Analysis Bot</text>
  <rect x="42" y="130" width="176" height="38" rx="6" fill="#20333c"/>
  <text x="78" y="154" fill="#80d8ff" font-family="Segoe UI, Arial, sans-serif" font-size="15">Article Review</text>
  <text x="78" y="206" fill="#858585" font-family="Segoe UI, Arial, sans-serif" font-size="15">Sentiment</text>
  <text x="78" y="252" fill="#858585" font-family="Segoe UI, Arial, sans-serif" font-size="15">Signals</text>
  <text x="78" y="298" fill="#858585" font-family="Segoe UI, Arial, sans-serif" font-size="15">Projections</text>

  <text x="282" y="66" fill="#d4d4d4" font-family="Segoe UI, Arial, sans-serif" font-size="28" font-weight="700">Article Review</text>
  <text x="282" y="94" fill="#858585" font-family="Segoe UI, Arial, sans-serif" font-size="15">Read-only review of ingested article sentiment.</text>

  <rect x="282" y="120" width="780" height="92" rx="10" fill="#252526" stroke="#333333"/>
  <rect x="306" y="144" width="220" height="34" rx="6" fill="#1b1b1c" stroke="#333333"/>
  <text x="326" y="166" fill="#858585" font-family="Segoe UI, Arial, sans-serif" font-size="13">Search titles</text>
  <rect x="542" y="144" width="108" height="34" rx="6" fill="#1b1b1c" stroke="#333333"/>
  <text x="562" y="166" fill="#d4d4d4" font-family="Segoe UI, Arial, sans-serif" font-size="13">Company</text>
  <rect x="666" y="144" width="108" height="34" rx="6" fill="#1b1b1c" stroke="#333333"/>
  <text x="686" y="166" fill="#d4d4d4" font-family="Segoe UI, Arial, sans-serif" font-size="13">Source</text>
  <rect x="790" y="144" width="108" height="34" rx="6" fill="#1b1b1c" stroke="#333333"/>
  <text x="810" y="166" fill="#d4d4d4" font-family="Segoe UI, Arial, sans-serif" font-size="13">Score</text>
  <rect x="914" y="144" width="108" height="34" rx="6" fill="#1b1b1c" stroke="#333333"/>
  <text x="934" y="166" fill="#d4d4d4" font-family="Segoe UI, Arial, sans-serif" font-size="13">Model</text>

  <text x="282" y="244" fill="#858585" font-family="Cascadia Mono, Consolas, monospace" font-size="13">1-20 of 115</text>
  <rect x="1006" y="226" width="32" height="32" rx="6" fill="#2d2d30" stroke="#333333"/>
  <path d="M1018 236L1028 242L1018 248" stroke="#d4d4d4" stroke-width="2" stroke-linecap="round" stroke-linejoin="round"/>

  <rect x="282" y="266" width="780" height="104" rx="10" fill="#252526" stroke="#333333"/>
  <rect x="306" y="290" width="62" height="24" rx="5" fill="#252526" stroke="#4fc3f7"/>
  <text x="318" y="307" fill="#4fc3f7" font-family="Cascadia Mono, Consolas, monospace" font-size="12">gnews</text>
  <text x="382" y="309" fill="#d4d4d4" font-family="Segoe UI, Arial, sans-serif" font-size="17" font-weight="700">Salmon market update affects multiple listed companies</text>
  <text x="306" y="334" fill="#858585" font-family="Segoe UI, Arial, sans-serif" font-size="13">Jun 09, 2026, 14:05 / Open original</text>
  <rect x="306" y="346" width="108" height="28" rx="14" fill="#203832" stroke="#4ec9b0"/>
  <text x="324" y="365" fill="#4ec9b0" font-family="Cascadia Mono, Consolas, monospace" font-size="12">MOWI +0.62</text>
  <rect x="424" y="346" width="126" height="28" rx="14" fill="#252526" stroke="#858585"/>
  <text x="442" y="365" fill="#858585" font-family="Cascadia Mono, Consolas, monospace" font-size="12">SALM unscored</text>
  <text x="570" y="364" fill="#4fc3f7" font-family="Segoe UI, Arial, sans-serif" font-size="13">Model input</text>

  <rect x="282" y="386" width="780" height="86" rx="10" fill="#252526" stroke="#333333"/>
  <rect x="306" y="410" width="80" height="24" rx="5" fill="#252526" stroke="#4fc3f7"/>
  <text x="318" y="427" fill="#4fc3f7" font-family="Cascadia Mono, Consolas, monospace" font-size="12">newsweb</text>
  <text x="400" y="429" fill="#d4d4d4" font-family="Segoe UI, Arial, sans-serif" font-size="17" font-weight="700">Company announcement stored as full text plus attachments</text>
  <text x="306" y="454" fill="#858585" font-family="Segoe UI, Arial, sans-serif" font-size="13">Jun 08, 2026, 08:30 / Open original</text>
</svg>
